<?xml version="1.0" encoding="UTF-8"?><svg id="Layer_1" xmlns="http://www.w3.org/2000/svg" viewBox="0 0 380.01 430"><defs></defs><path class="cls-1" d="m235.96,430h-.12l-195.9-1.5c-22.03-.03-39.94-17.96-39.94-40V40C0,17.94,17.94,0,40,0h300c22.06,0,40,17.94,40,40v248.44c0,7.01-3.4,14.43-21.96,35.51-10.88,12.35-25.75,27.86-41.88,43.66-16.09,15.76-31.9,30.33-44.52,41.01-21.36,18.08-28.78,21.38-35.68,21.38Zm-3.49-29.43h0ZM40,30c-5.51,0-10,4.49-10,10v348.5c0,5.51,4.49,10,10,10h.12l193.5,1.48c6.94-3.94,29.12-22.04,61.45-53.71,32.31-31.65,50.84-53.45,54.94-60.34V40c0-5.51-4.49-10-10-10H40Zm310.62,254.78h0Z"/><path class="cls-1" d="m235.96,430c-8.28,0-15-6.72-15-15v-93.93c0-26.26,21.36-47.63,47.63-47.63h96.42c8.28,0,15,6.72,15,15s-6.72,15-15,15h-96.42c-9.72,0-17.63,7.91-17.63,17.63v93.94c0,8.28-6.72,14.99-15,14.99Z"/><path class="cls-2" d="m274.02,92.08H98.81c-8.28,0-15-6.72-15-15s6.72-15,15-15h175.22c8.28,0,15,6.72,15,15s-6.72,15-15.01,15Z"/><path class="cls-1" d="m274.02,171.72H98.81c-8.28,0-15-6.72-15-15s6.72-15,15-15h175.22c8.28,0,15,6.72,15,15s-6.72,15-15.01,15Z"/><path class="cls-1" d="m274.02,251.35H98.81c-8.28,0-15-6.72-15-15s6.72-15,15-15h175.22c8.28,0,15,6.72,15,15s-6.72,15-15.01,15Z"/><path class="cls-1" d="m177.3,330.98h-78.49c-8.28,0-15-6.72-15-15s6.72-15,15-15h78.49c8.28,0,15,6.72,15,15s-6.72,15-15,15Z"/></svg>