<svg xmlns="http://www.w3.org/2000/svg" width="139.832" height="26.326" viewBox="0 0 139.832 26.326">
  <g id="Group_1905" data-name="Group 1905" transform="translate(-61 -35)">
    <g id="Group_1904" data-name="Group 1904">
      <path id="Path_1745" data-name="Path 1745" d="M59.682,14.2h-3.62a.69.69,0,0,0-.69.69v3.26a.679.679,0,0,0,.68.68h4.2a.679.679,0,0,1,.68.68v.01a.67.67,0,0,1-.66.68H54.4a.679.679,0,0,1-.69-.67V8.058a.69.69,0,0,1,.69-.69h5.56a.69.69,0,0,1,.69.69.679.679,0,0,1-.68.68h-3.91a.69.69,0,0,0-.69.69v2.69a.679.679,0,0,0,.68.68h3.63a.69.69,0,0,1,.68.69.679.679,0,0,1-.649.709h-.031" transform="translate(61 35)" fill="#3c89e6"/>
      <path id="Path_1746" data-name="Path 1746" d="M70.172,6.688a.75.75,0,0,1,.75.74v12.01a.751.751,0,0,1-.73.77h-.02a.749.749,0,0,1-.75-.71v-.89a3.39,3.39,0,0,1-3.14,1.81c-2.23,0-3.94-1.88-3.94-4.68,0-3.07,1.88-5,4.13-5A3.091,3.091,0,0,1,69.2,12.2V7.428a.75.75,0,0,1,.75-.74Zm-.93,8.06a2.875,2.875,0,0,0-.08-.71,2.451,2.451,0,0,0-2.41-1.94c-1.74,0-2.77,1.52-2.77,3.56,0,1.87.92,3.41,2.73,3.41a2.51,2.51,0,0,0,2.45-2,2.771,2.771,0,0,0,.08-.72Z" transform="translate(61 35)" fill="#3c89e6"/>
      <path id="Path_1747" data-name="Path 1747" d="M81.572,18.878c0,2.12-.42,3.41-1.32,4.21A4.869,4.869,0,0,1,76.9,24.2a6.755,6.755,0,0,1-2.54-.48.674.674,0,0,1,.494-1.251.537.537,0,0,1,.056.021,5.419,5.419,0,0,0,2,.39c1.71,0,3-.89,3-3.22v-1a3.28,3.28,0,0,1-2.95,1.54c-2.29,0-3.93-1.95-3.93-4.5,0-3.12,2-4.9,4.16-4.9a3.061,3.061,0,0,1,2.87,1.6v-.69a.74.74,0,0,1,.73-.7.749.749,0,0,1,.74.76v1.78Zm-1.67-4.25a2.6,2.6,0,0,0-.09-.76,2.431,2.431,0,0,0-2.35-1.77c-1.77,0-3,1.67-2.7,4.22a2.891,2.891,0,0,0,1.83,2.43,2.451,2.451,0,0,0,3.152-1.439c.013-.037.026-.074.038-.111a3.115,3.115,0,0,0,.13-.9Z" transform="translate(61 35)" fill="#3c89e6"/>
      <path id="Path_1748" data-name="Path 1748" d="M85.962,15.908a.61.61,0,0,0-.617.6.624.624,0,0,0,.007.1,2.891,2.891,0,0,0,3.1,2.5,6.49,6.49,0,0,0,1.92-.25.62.62,0,0,1,.778.405l.012.045a.61.61,0,0,1-.41.73,7.983,7.983,0,0,1-2.53.38,4.3,4.3,0,0,1-4.548-4.037,4.181,4.181,0,0,1,.008-.623c0-2.79,1.64-5,4.33-5,3,0,3.81,2.65,3.81,4.35v.18a.63.63,0,0,1-.62.6Zm3.57-1.2a.609.609,0,0,0,.618-.6A.561.561,0,0,0,90.142,14a2.189,2.189,0,0,0-2.26-2,2.52,2.52,0,0,0-2.39,1.92.62.62,0,0,0,.59.81Z" transform="translate(61 35)" fill="#3c89e6"/>
      <path id="Path_1749" data-name="Path 1749" d="M94.772,7.368a.84.84,0,0,1,.84.84v6.77c0,2.87,1.28,4.09,3,4.09,1.91,0,3.13-1.26,3.13-4.09V8.2a.84.84,0,0,1,.84-.84.849.849,0,0,1,.84.84v6.65c0,3.94-2.08,5.56-4.86,5.56s-4.66-1.49-4.66-5.47V8.2a.84.84,0,0,1,.83-.84Z" transform="translate(61 35)" fill="#3c89e6"/>
      <path id="Path_1750" data-name="Path 1750" d="M115.1,19.2a.67.67,0,0,1-.44.82,9.219,9.219,0,0,1-2.79.39c-3.62,0-6.35-2.3-6.35-6.51a6.4,6.4,0,0,1,6.085-6.7c.208-.01.417-.01.625,0a8.22,8.22,0,0,1,2.42.33.68.68,0,0,1,.45.84.691.691,0,0,1-.86.46,6.517,6.517,0,0,0-2-.29c-3,0-5,1.93-5,5.3,0,3.14,1.81,5.16,4.94,5.16a7.356,7.356,0,0,0,2-.28.669.669,0,0,1,.832.453l.008.027Z" transform="translate(61 35)" fill="#3c89e6"/>
      <path id="Path_1751" data-name="Path 1751" d="M125.412,15.528A4.5,4.5,0,0,1,121.32,20.4a4.544,4.544,0,0,1-4.933-4.309c0-.138,0-.277.015-.415,0-3.09,2-4.9,4.57-4.9a4.415,4.415,0,0,1,4.44,4.75m-7.31.09c0,2,1.16,3.55,2.8,3.55s2.8-1.51,2.8-3.59c0-1.56-.78-3.54-2.76-3.54s-2.84,1.83-2.84,3.58" transform="translate(61 35)" fill="#3c89e6"/>
      <path id="Path_1752" data-name="Path 1752" d="M129.4,8.4a1.04,1.04,0,1,1-2.08,0,1,1,0,0,1,1-1h.051a1,1,0,0,1,1.03.97V8.4m-1.87,11v-7.57a.84.84,0,0,1,.84-.84.849.849,0,0,1,.84.84v7.55a.84.84,0,0,1-.84.83.831.831,0,0,1-.84-.82v.01Z" transform="translate(61 35)" fill="#3c89e6"/>
      <path id="Path_1753" data-name="Path 1753" d="M131.992,13.488v-1.72a.749.749,0,0,1,.719-.779h.021a.739.739,0,0,1,.74.7l.05.83a3.4,3.4,0,0,1,3.05-1.74c1.28,0,3.26.77,3.26,3.93v4.76a.75.75,0,0,1-.75.74h-.18a.74.74,0,0,1-.74-.74V14.9c0-1.49-.55-2.73-2.13-2.73a2.379,2.379,0,0,0-2.25,1.72,2.272,2.272,0,0,0-.12.78v4.8a.739.739,0,0,1-.75.73h-.2a.74.74,0,0,1-.74-.74Z" transform="translate(61 35)" fill="#3c89e6"/>
      <path id="Path_1754" data-name="Path 1754" d="M13.222,2.468V.658A.72.72,0,0,0,12.443,0a.7.7,0,0,0-.221.055c-.44.21-.9.39-1.34.58l-8,3.47c-.65.28-1.3.54-1.93.86A1.61,1.61,0,0,0,0,6.518v16.57a1.539,1.539,0,0,0,.33,1,3.325,3.325,0,0,0,1.4,1,7.157,7.157,0,0,0,2.17.48,6.1,6.1,0,0,0,3-.45l1.56-.68a1.658,1.658,0,0,1-.15-.69V7.168a1.609,1.609,0,0,1,.94-1.54c.63-.32-.85.28-2.39,1a5.478,5.478,0,0,1-2.79.57,5.894,5.894,0,0,1-2.17-.63c-.06,0-.11-.08-.19-.13l.16-.08,9.22-4,2.59,1.12,1-.46Zm-8.17,21.08a.33.33,0,0,1-.26.32,5.01,5.01,0,0,1-1,.1,4.152,4.152,0,0,1-1-.1,4,4,0,0,1-1.78-1,.332.332,0,0,1,.47-.47,3.429,3.429,0,0,0,1.42.8,4.522,4.522,0,0,0,1.45,0v-3.75a.34.34,0,0,1,.67,0Zm0-5.32a.33.33,0,0,1-.26.32,5.01,5.01,0,0,1-1,.1,4.152,4.152,0,0,1-1-.1,4,4,0,0,1-1.78-1,.332.332,0,0,1,.47-.47,3.434,3.434,0,0,0,1.42.82,4.253,4.253,0,0,0,1.45,0v-3.77a.34.34,0,0,1,.67,0ZM2.9,12.578a4.281,4.281,0,0,0,1.45.05V8.818a.34.34,0,0,1,.67-.116.323.323,0,0,1,0,.116v4.09a.34.34,0,0,1-.26.33,5.988,5.988,0,0,1-1,.1,4.8,4.8,0,0,1-1-.1A4,4,0,0,1,1,12.2a.332.332,0,0,1,.47-.47,3.44,3.44,0,0,0,1.43.85" transform="translate(61 35)" fill="#913a7e"/>
      <path id="Path_1755" data-name="Path 1755" d="M22.482,3.118q.045-.9,0-1.8A.72.72,0,0,0,21.7.663a.7.7,0,0,0-.221.055c-.44.21-.9.39-1.35.58l-1.84.8-6.18,2.67c-.65.28-1.3.54-1.93.86a1.6,1.6,0,0,0-.95,1.57v16.58a1.639,1.639,0,0,0,.14.69,2.529,2.529,0,0,0,.19.3,3.41,3.41,0,0,0,1.4,1,7.122,7.122,0,0,0,2.15.52,6.1,6.1,0,0,0,3.07-.45l2.95-1.29a1.562,1.562,0,0,1-.18-.74V7.2a1.569,1.569,0,0,1,.9-1.52l-1,.4c-.92.4-1.83.79-2.75,1.21a5.481,5.481,0,0,1-2.81.58,5.719,5.719,0,0,1-2.17-.67l-.22-.1.16-.08,9.3-4,2.61,1.18.9-.46ZM14,24.348a.33.33,0,0,1-.26.32,5.01,5.01,0,0,1-1,.1,4.2,4.2,0,0,1-1-.1,4,4,0,0,1-1.78-1,.33.33,0,0,1,0-.467l0,0a.34.34,0,0,1,.48,0,3.276,3.276,0,0,0,1.45.82,4.253,4.253,0,0,0,1.45,0v-3.77a.34.34,0,0,1,.67,0Zm0-5.32a.33.33,0,0,1-.26.32,5.01,5.01,0,0,1-1,.1,4.2,4.2,0,0,1-1-.1,4,4,0,0,1-1.78-1,.33.33,0,0,1,0-.467l0,0a.34.34,0,0,1,.48,0,3.281,3.281,0,0,0,1.46.82,4.015,4.015,0,0,0,1.45,0v-3.77a.34.34,0,0,1,.67,0Zm-2.1-5.65a4.281,4.281,0,0,0,1.45.05V9.618a.34.34,0,0,1,.67-.116.323.323,0,0,1,0,.116v4.09a.34.34,0,0,1-.26.33,5.988,5.988,0,0,1-1,.1,4.867,4.867,0,0,1-1-.1,4.142,4.142,0,0,1-1.78-1,.34.34,0,0,1,.48-.48,3.287,3.287,0,0,0,1.44.82" transform="translate(61 35)" fill="#003595"/>
      <path id="Path_1756" data-name="Path 1756" d="M37.492,2.788a.732.732,0,0,0-.58.07l-2.13.92-1.66-.73V1.318a.72.72,0,0,0-.779-.655.7.7,0,0,0-.221.055c-.44.21-.9.39-1.35.58l-8,3.47c-.6.26-1.2.5-1.78.78l-.15.08A1.6,1.6,0,0,0,19.9,7.2v16.58a1.547,1.547,0,0,0,.17.74,2.118,2.118,0,0,0,.16.25,3.41,3.41,0,0,0,1.4,1,7.121,7.121,0,0,0,2.15.52,6.1,6.1,0,0,0,3.07-.45,44.558,44.558,0,0,0,4-2.12s-1.6-1.93-1.67-7.45a18.342,18.342,0,0,1,1.25-6.63,9.182,9.182,0,0,1,2.35-3.29,10.522,10.522,0,0,1,3.49-2H37.9v-.9a.52.52,0,0,0-.351-.646.39.39,0,0,0-.059-.014m-12.84,21.68a.33.33,0,0,1-.26.33,5.01,5.01,0,0,1-1,.1,4.867,4.867,0,0,1-1-.1,4.132,4.132,0,0,1-1.78-1,.339.339,0,1,1,.48-.48,3.511,3.511,0,0,0,1.45.82,4.522,4.522,0,0,0,1.45,0v-3.76a.34.34,0,0,1,.67-.116.323.323,0,0,1,0,.116Zm0-5.32a.329.329,0,0,1-.26.33,5.01,5.01,0,0,1-1,.1,4.2,4.2,0,0,1-1-.1,4.142,4.142,0,0,1-1.78-1,.33.33,0,0,1,0-.467l0,0a.34.34,0,0,1,.48,0,3.384,3.384,0,0,0,1.45.82,4.522,4.522,0,0,0,1.45,0v-3.77a.34.34,0,0,1,.67,0Zm0-5.31a.33.33,0,0,1-.26.32,5.01,5.01,0,0,1-1,.1,4.2,4.2,0,0,1-1-.1,4,4,0,0,1-1.78-1,.33.33,0,0,1,0-.467l0,0a.34.34,0,0,1,.48,0,3.276,3.276,0,0,0,1.45.82,4.522,4.522,0,0,0,1.45,0V9.738a.34.34,0,0,1,.67,0Zm6.76-8.64-3.24,1.4-1.39.62a5.481,5.481,0,0,1-2.81.58,5.714,5.714,0,0,1-2.22-.6l-.19-.12.16-.08L30.9,3.2l2.81,1.2Z" transform="translate(61 35)" fill="#cc0"/>
      <path id="Path_1757" data-name="Path 1757" d="M41.522,14.878c-1.14-.47-1.47-.76-1.47-1.26s.3-.88,1.14-.88a3,3,0,0,1,1.53.41l.25.15.11-.28.33-.86.07-.2-.18-.11a3.758,3.758,0,0,0-1.58-.48v-1.29H40.4v1.37a2.36,2.36,0,0,0-2,2.32c0,1.4,1.11,2,2.32,2.51.94.38,1.32.76,1.32,1.33s-.52,1-1.31,1a3.2,3.2,0,0,1-1.74-.52l-.27-.18-.11.3-.32.88-.06.18.15.11a3.931,3.931,0,0,0,1.91.61v1.34h1.33v-1.38a2.5,2.5,0,0,0,2.07-2.44c.02-1.22-.63-2-2.17-2.63" transform="translate(61 35)" fill="#f4b200"/>
      <path id="Path_1758" data-name="Path 1758" d="M46.952,8.2a7,7,0,0,0-5.67-3.19h-3.87a7.946,7.946,0,0,0-3.59,1.86c-.16.14-.32.29-.48.46l-.07.07a9.814,9.814,0,0,0-1.86,2.82,14.668,14.668,0,0,0-1.08,5.82,14.155,14.155,0,0,0,1,5.7,8.726,8.726,0,0,0,1.41,2.23v.05a8.624,8.624,0,0,0,.89.83,6.646,6.646,0,0,0,3.49,1.47h4.06a7,7,0,0,0,5.77-3.12,12.8,12.8,0,0,0,2.27-7.49,12.809,12.809,0,0,0-2.27-7.51m-5.67,17.15c-3.79,0-6.88-4.32-6.88-9.63s3.09-9.64,6.88-9.64,6.89,4.32,6.89,9.64-3.09,9.63-6.89,9.63M37.9,6.048a7.78,7.78,0,0,0-1.51,1.27H34.9a7,7,0,0,1,2.61-1.27Zm-.61,19.33a5.9,5.9,0,0,1-2.93-1.26h2a8.071,8.071,0,0,0,1.54,1.26Zm-3.93-2.26a6.876,6.876,0,0,1-.84-1.3h2.27a9.4,9.4,0,0,0,.79,1.3Zm0-6.91a15.619,15.619,0,0,0,.19,1.99h-2.1a14.852,14.852,0,0,1-.12-2Zm-1.8-2.93h2a15.658,15.658,0,0,0-.2,1.92h-2a14.548,14.548,0,0,1,.2-1.92m2.2,5.86a13.333,13.333,0,0,0,.55,1.69h-2.25a11.5,11.5,0,0,1-.46-1.69Zm-1.44-8.45V10.6h1.95a13.333,13.333,0,0,0-.55,1.69h-2a10.776,10.776,0,0,1,.6-1.6m.58-1.08a7.831,7.831,0,0,1,1-1.3h1.73a9.4,9.4,0,0,0-.79,1.3Z" transform="translate(61 35)" fill="#f4b200"/>
      <rect id="Rectangle_2949" data-name="Rectangle 2949" width="139.832" height="26.326" transform="translate(61 35)" fill="none"/>
    </g>
  </g>
</svg>
