<?xml version="1.0" encoding="UTF-8"?><svg id="Layer_1" xmlns="http://www.w3.org/2000/svg" viewBox="0 0 451.42 451.42"><defs><style>.cls-1{fill:#3f3f3f;}</style></defs><path class="cls-1" d="m225.71,451.42c-60.29,0-116.97-23.48-159.6-66.11C23.48,342.68,0,286,0,225.71S23.48,108.74,66.11,66.11C108.74,23.48,165.42,0,225.71,0s116.97,23.48,159.6,66.11c42.63,42.63,66.11,99.31,66.11,159.6s-23.48,116.97-66.11,159.6-99.31,66.11-159.6,66.11Zm0-421.43C117.79,29.99,30,117.79,30,225.7s87.8,195.71,195.71,195.71,195.71-87.8,195.71-195.71S333.63,29.99,225.71,29.99Z"/><path class="cls-1" d="m225.71,358.15c-61.9,0-112.26-50.36-112.26-112.26v-7.92c0-18.34,14.92-33.27,33.27-33.27h157.98c18.34,0,33.27,14.92,33.27,33.27v7.92c0,61.9-50.36,112.26-112.26,112.26Zm-78.99-123.45c-1.8,0-3.27,1.47-3.27,3.27v7.92c0,45.36,36.9,82.26,82.26,82.26s82.26-36.9,82.26-82.26v-7.92c0-1.8-1.47-3.27-3.27-3.27h-157.98Z"/><path class="cls-1" d="m241.8,362.21h-32.27c-7.96,0-14.41-6.45-14.41-14.41v-.23h61.09v.23c0,7.96-6.45,14.41-14.41,14.41Z"/><path class="cls-1" d="m210.22,192.03c-8.97,0-17.94-3.41-24.77-10.24l-26.99-26.99c-13.66-13.66-13.66-35.88,0-49.53s35.88-13.66,49.53,0l26.99,26.99c13.66,13.66,13.66,35.88,0,49.53-6.82,6.82-15.79,10.24-24.76,10.24Zm-26.99-67.02c-1.29,0-2.57.49-3.55,1.47-1.96,1.96-1.96,5.15,0,7.11l26.99,26.99c1.96,1.96,5.15,1.96,7.11,0s1.96-5.15,0-7.11l-26.99-26.99c-.98-.98-2.27-1.47-3.56-1.47Z"/></svg>