<?xml version="1.0" encoding="UTF-8"?><svg id="Layer_1" xmlns="http://www.w3.org/2000/svg" viewBox="0 0 406.24 393.25"><defs><style></style></defs><path class="cls-1" d="m366.24,355h-34.01c-8.28,0-15-6.72-15-15s6.72-15,15-15h34.01c5.51,0,10-4.49,10-10V116.5c0-5.51-4.49-10-10-10H40c-5.51,0-10,4.49-10,10v198.5c0,5.51,4.49,10,10,10h36.94c8.28,0,15,6.72,15,15s-6.72,15-15,15h-36.94c-22.06,0-40-17.94-40-40V116.5c0-22.06,17.94-40,40-40h326.24c22.06,0,40,17.94,40,40v198.5c0,22.06-17.95,40-40,40Z"/><path class="cls-1" d="m343.12,106.5H63.12V0h280v106.5Zm-250-30h220V30H93.12v46.5h0Z"/><path class="cls-1" d="m343.12,393.25H63.12v-135.54h280v135.54Zm-250-30h220v-75.54H93.12v75.54h0Z"/><circle class="cls-1" cx="330.44" cy="212.94" r="12.69"/></svg>