<?xml version="1.0" encoding="UTF-8"?><svg id="Layer_1" xmlns="http://www.w3.org/2000/svg" viewBox="0 0 451.42 451.42"><defs><style>.cls-1{fill:#3f3f3f;}</style></defs><path class="cls-1" d="m225.71,451.42c-60.29,0-116.97-23.48-159.6-66.11C23.48,342.68,0,286,0,225.71S23.48,108.74,66.11,66.11,165.42,0,225.71,0s116.97,23.48,159.6,66.11c42.63,42.63,66.11,99.31,66.11,159.6s-23.48,116.97-66.11,159.6c-42.63,42.63-99.31,66.11-159.6,66.11Zm0-421.42C117.79,30,30,117.79,30,225.71s87.79,195.71,195.71,195.71,195.71-87.79,195.71-195.71S333.62,30,225.71,30Z"/><path class="cls-1" d="m225.71,340.71c-63.41,0-115-51.59-115-115s51.59-115,115-115,115,51.59,115,115-51.59,115-115,115Zm0-200c-46.87,0-85,38.13-85,85s38.13,85,85,85,85-38.13,85-85-38.13-85-85-85Z"/><path class="cls-1" d="m77.74,388.68c-3.84,0-7.68-1.46-10.61-4.39-5.86-5.86-5.86-15.36,0-21.21l68.79-68.79c5.86-5.86,15.36-5.86,21.21,0,5.86,5.86,5.86,15.36,0,21.21l-68.79,68.79c-2.93,2.93-6.77,4.39-10.61,4.39Z"/><path class="cls-1" d="m371.72,386.72c-3.84,0-7.68-1.46-10.61-4.39l-72.76-72.76c-5.86-5.86-5.86-15.36,0-21.21,5.86-5.86,15.36-5.86,21.21,0l72.76,72.76c5.86,5.86,5.86,15.36,0,21.21-2.93,2.93-6.77,4.39-10.61,4.39Z"/></svg>