<?xml version="1.0" encoding="UTF-8"?><svg id="Layer_1" xmlns="http://www.w3.org/2000/svg" viewBox="0 0 451.42 451.42"><defs><style>.cls-1{fill:#3f3f3f;}</style></defs><path class="cls-1" d="m225.71,451.42c-60.29,0-116.97-23.48-159.6-66.11S0,286,0,225.71,23.48,108.74,66.11,66.11C108.74,23.48,165.42,0,225.71,0s116.97,23.48,159.6,66.11c42.63,42.63,66.11,99.31,66.11,159.6s-23.48,116.97-66.11,159.6c-42.63,42.63-99.31,66.11-159.6,66.11Zm0-421.43C117.79,29.99,30,117.79,30,225.7s87.8,195.71,195.71,195.71,195.71-87.8,195.71-195.71S333.63,29.99,225.71,29.99Z"/><path class="cls-1" d="m225.71,340.7c-63.41,0-115-51.59-115-115s51.59-115,115-115,115,51.59,115,115-51.59,115-115,115Zm0-200c-46.87,0-85,38.13-85,85s38.13,85,85,85,85-38.13,85-85-38.13-85-85-85Z"/><path class="cls-1" d="m77.74,388.67c-3.84,0-7.68-1.46-10.61-4.39-5.86-5.86-5.86-15.36,0-21.21l68.79-68.79c5.86-5.86,15.36-5.86,21.21,0,5.86,5.86,5.86,15.36,0,21.21l-68.79,68.79c-2.92,2.93-6.76,4.39-10.6,4.39Z"/><path class="cls-1" d="m371.72,386.72c-3.84,0-7.68-1.46-10.61-4.39l-72.76-72.76c-5.86-5.86-5.86-15.36,0-21.21,5.86-5.86,15.36-5.86,21.21,0l72.76,72.76c5.86,5.86,5.86,15.36,0,21.21-2.92,2.92-6.76,4.39-10.6,4.39Z"/><path class="cls-1" d="m131.16,238.74c-8.28,0-15-6.72-15-15s6.72-15,15-15c27.5,0,48.23-7.26,61.61-21.58,19.87-21.27,18-52.21,17.98-52.52-.64-8.26,5.54-15.44,13.8-16.08,8.27-.64,15.48,5.57,16.12,13.83.14,1.78,3.04,43.89-25.7,74.95-19.29,20.84-47.48,31.4-83.81,31.4Z"/><path class="cls-1" d="m319.3,240.7c-35.95,0-63.95-10.55-83.23-31.34-29.35-31.66-26.42-75.11-26.28-76.95.63-8.26,7.83-14.46,16.09-13.82,8.24.63,14.42,7.8,13.83,16.03-.03.51-1.88,32.69,18.53,54.53,13.37,14.3,33.92,21.55,61.06,21.55,8.28,0,15,6.72,15,15,0,8.29-6.71,15-15,15Z"/><ellipse class="cls-1" cx="225.71" cy="118.66" rx="26.94" ry="19.05"/></svg>