<?xml version="1.0" encoding="UTF-8"?><svg id="Layer_1" xmlns="http://www.w3.org/2000/svg" viewBox="0 0 430 417.5"><defs></defs><path class="cls-1" d="m390,417.5H40c-22.06,0-40-17.94-40-40V40C0,17.94,17.94,0,40,0h350c22.06,0,40,17.94,40,40v337.5c0,22.06-17.95,40-40,40ZM40,30c-5.51,0-10,4.49-10,10v337.5c0,5.51,4.49,10,10,10h350c5.51,0,10-4.49,10-10V40c0-5.51-4.49-10-10-10H40Z"/><path class="cls-1" d="m127.3,355c-8.28,0-15-6.72-15-15v-148.95c0-8.28,6.72-15,15-15s15,6.72,15,15v148.96c0,8.28-6.71,14.99-15,14.99Z"/><path class="cls-1" d="m215.12,355c-8.28,0-15-6.72-15-15V90c0-8.28,6.72-15,15-15s15,6.72,15,15v250c0,8.29-6.71,15-15,15Z"/><path class="cls-1" d="m302.95,355c-8.28,0-15-6.72-15-15v-86.28c0-8.28,6.72-15,15-15s15,6.72,15,15v86.28c0,8.29-6.72,15-15,15Z"/></svg>