<?xml version="1.0" encoding="UTF-8"?><svg id="Layer_1" xmlns="http://www.w3.org/2000/svg" viewBox="0 0 398.69 398.31" fill='currentColor'><defs><style></style></defs><path class="cls-1" d="m135.21,270.42C60.65,270.42,0,209.76,0,135.21S60.66,0,135.21,0s135.21,60.66,135.21,135.21c0,74.55-60.66,135.21-135.21,135.21Zm0-240.43c-58.01,0-105.21,47.2-105.21,105.21s47.2,105.21,105.21,105.21,105.21-47.2,105.21-105.21S193.22,29.99,135.21,29.99Z"/><path class="cls-1" d="m383.69,398.31c-3.84,0-7.68-1.46-10.61-4.39l-161.11-161.12c-5.86-5.86-5.86-15.36,0-21.21,5.86-5.86,15.36-5.86,21.21,0l161.11,161.11c5.86,5.86,5.86,15.36,0,21.21-2.93,2.93-6.77,4.4-10.6,4.4Z"/></svg>