<?xml version="1.0" encoding="UTF-8"?><svg id="Layer_1" xmlns="http://www.w3.org/2000/svg" viewBox="0 0 480 430"><defs><style>.cls-1{fill:#3f3f3f;}</style></defs><path class="cls-1" d="m440,190.37H40c-22.06,0-40-17.94-40-40v-10.37c0-22.06,17.94-40,40-40h400c22.06,0,40,17.94,40,40v10.37c0,22.06-17.94,40-40,40ZM40,130c-5.51,0-10,4.49-10,10v10.37c0,5.51,4.49,10,10,10h400c5.51,0,10-4.49,10-10v-10.37c0-5.51-4.49-10-10-10H40Z"/><path class="cls-1" d="m359.5,430H120.09c-19.85,0-36.88-14.83-39.62-34.49l-32.7-235.14h382.25l-30.87,234.84c-2.6,19.83-19.64,34.79-39.65,34.79ZM82.23,190.37l27.96,201c.68,4.92,4.94,8.63,9.9,8.63h239.41c5,0,9.26-3.74,9.91-8.69l26.41-200.94H82.23Z"/><path class="cls-1" d="m114.99,162.17c-2.89,0-5.81-.83-8.38-2.57-6.87-4.64-8.67-13.96-4.04-20.83L191.83,6.61c4.64-6.86,13.96-8.67,20.83-4.04,6.87,4.64,8.67,13.96,4.04,20.83l-89.26,132.17c-2.9,4.29-7.63,6.61-12.44,6.61Z"/><path class="cls-1" d="m114.99,162.17c-2.89,0-5.81-.83-8.38-2.57-6.87-4.64-8.67-13.96-4.04-20.83L191.83,6.61c4.64-6.86,13.96-8.67,20.83-4.04,6.87,4.64,8.67,13.96,4.04,20.83l-89.26,132.17c-2.9,4.29-7.63,6.61-12.44,6.61Z"/><path class="cls-1" d="m365.01,162.17c-4.82,0-9.55-2.31-12.44-6.61L263.31,23.4c-4.64-6.87-2.83-16.19,4.04-20.83,6.86-4.64,16.19-2.83,20.83,4.04l89.26,132.17c4.64,6.87,2.83,16.19-4.04,20.83-2.57,1.74-5.49,2.57-8.38,2.57Z"/></svg>