<?xml version="1.0" encoding="UTF-8"?><svg id="Layer_1" xmlns="http://www.w3.org/2000/svg" viewBox="0 0 451.42 451.42"><defs></defs><path class="cls-1" d="m225.71,451.42c-60.29,0-116.97-23.48-159.6-66.11S0,286,0,225.71,23.48,108.74,66.11,66.11,165.42,0,225.71,0s116.97,23.48,159.6,66.11,66.11,99.31,66.11,159.6-23.48,116.97-66.11,159.6-99.31,66.11-159.6,66.11Zm0-421.42C117.79,30,30,117.79,30,225.71s87.79,195.71,195.71,195.71,195.71-87.79,195.71-195.71S333.63,30,225.71,30Z"/><path class="cls-1" d="m225.71,340.71c-63.41,0-115-51.59-115-115s51.59-115,115-115,115,51.59,115,115-51.59,115-115,115Zm0-200c-46.87,0-85,38.13-85,85s38.13,85,85,85,85-38.13,85-85-38.13-85-85-85Z"/><path class="cls-1" d="m78.72,383.94c-3.84,0-7.68-1.46-10.61-4.39-5.86-5.86-5.86-15.36,0-21.21l68.79-68.79c5.86-5.86,15.36-5.86,21.21,0,5.86,5.86,5.86,15.36,0,21.21l-68.79,68.79c-2.93,2.93-6.77,4.39-10.61,4.39Z"/><path class="cls-1" d="m372.71,381.98c-3.84,0-7.68-1.46-10.61-4.39l-72.77-72.76c-5.86-5.86-5.86-15.35,0-21.21,5.86-5.86,15.36-5.86,21.21,0l72.77,72.76c5.86,5.86,5.86,15.35,0,21.21-2.93,2.93-6.77,4.39-10.61,4.39Z"/><path class="cls-1" d="m197.71,447.86c-1.88,0-3.78-.35-5.63-1.1-7.68-3.11-11.38-11.86-8.27-19.54l18.36-45.3-25.13-21,24.58-43.24c4.09-7.2,13.25-9.72,20.45-5.63,7.2,4.09,9.72,13.25,5.63,20.45l-12.2,21.46,22.69,18.96-26.58,65.56c-2.36,5.83-7.98,9.37-13.91,9.37Z"/></svg>