<?xml version="1.0" encoding="UTF-8"?><svg id="Layer_1" xmlns="http://www.w3.org/2000/svg" viewBox="0 0 483.01 328.56" fill="currentColor"><defs></defs><path class="cls-1" d="m241.03,287.29c-67.83,0-123.01-55.18-123.01-123.01,0-31.66,12-61.73,33.79-84.68,5.7-6.01,15.2-6.25,21.21-.55,6.01,5.7,6.25,15.2.55,21.21-16.47,17.35-25.54,40.09-25.54,64.02,0,51.28,41.72,93.01,93.01,93.01s93.01-41.72,93.01-93.01c0-22.48-8.12-44.18-22.88-61.09-5.44-6.24-4.8-15.72,1.45-21.16,6.24-5.44,15.72-4.8,21.16,1.45,19.52,22.38,30.27,51.08,30.27,80.81-.02,67.82-55.2,123-123.02,123Z"/><path class="cls-1" d="m241.51,328.56c-63.4,0-123.21-16.41-168.41-46.2C25.97,251.3,0,209.36,0,164.28S25.97,77.26,73.1,46.2C118.3,16.41,178.11,0,241.51,0s123.21,16.41,168.41,46.2c47.13,31.06,73.09,73,73.09,118.08s-25.96,87.02-73.09,118.08c-45.2,29.79-105.01,46.2-168.41,46.2Zm0-298.56c-57.6,0-111.55,14.65-151.91,41.25-38.42,25.33-59.59,58.37-59.59,93.03s21.16,67.7,59.59,93.03c40.36,26.6,94.31,41.25,151.91,41.25s111.55-14.65,151.9-41.25c38.43-25.33,59.59-58.37,59.59-93.03s-21.16-67.7-59.59-93.03c-40.35-26.6-94.3-41.25-151.9-41.25Z"/><path class="cls-1" d="m468.02,177.73c-4.15,0-8.27-1.71-11.24-5.06-40.69-45.99-125.93-75.7-217.14-75.7S68.27,124.57,25.86,169.01c-5.72,5.99-15.21,6.21-21.21.5-5.99-5.72-6.22-15.21-.5-21.21,23.42-24.54,57.41-45.04,98.3-59.29,41.36-14.42,88.79-22.04,137.18-22.04,100.95,0,192.76,32.88,239.61,85.82,5.49,6.2,4.91,15.68-1.29,21.17-2.85,2.52-6.4,3.76-9.93,3.77Z"/></svg>