<?xml version="1.0" encoding="UTF-8"?><svg id="Layer_1" xmlns="http://www.w3.org/2000/svg" viewBox="0 0 417.6 464.22"><defs><style>.cls-1{fill:#3f3f3f;}</style></defs><path class="cls-1" d="m354.59,464.22H63.01c-22.06,0-40-17.94-40-40V84.89c0-22.06,17.94-40,40-40h291.57c22.06,0,40,17.94,40,40v339.32c.01,22.06-17.94,40.01-39.99,40.01ZM63.01,74.89c-5.51,0-10,4.49-10,10v339.32c0,5.51,4.49,10,10,10h291.57c5.51,0,10-4.49,10-10V84.89c0-5.51-4.49-10-10-10H63.01Z"/><path class="cls-1" d="m284.53,74.89c-8.28,0-15-6.72-15-15v-19.89c0-5.51-4.49-10-10-10h-101.46c-5.51,0-10,4.49-10,10v19.89c0,8.28-6.72,15-15,15s-15-6.72-15-15v-19.89c0-22.06,17.94-40,40-40h101.47c22.06,0,40,17.94,40,40v19.89c0,8.29-6.72,15-15.01,15Z"/><path class="cls-1" d="m120.45,366.43c-8.28,0-15-6.72-15-15v-222.71c0-8.28,6.72-15,15-15s15,6.72,15,15v222.71c0,8.28-6.72,15-15,15Z"/><path class="cls-1" d="m402.6,74.89H15c-8.28,0-15-6.72-15-15s6.72-15,15-15h387.6c8.28,0,15,6.72,15,15s-6.72,15-15,15Z"/><path class="cls-1" d="m208.8,366.43c-8.28,0-15-6.72-15-15v-222.71c0-8.28,6.72-15,15-15s15,6.72,15,15v222.71c0,8.28-6.72,15-15,15Z"/><path class="cls-1" d="m297.19,366.43c-8.28,0-15-6.72-15-15v-222.71c0-8.28,6.72-15,15-15s15,6.72,15,15v222.71c0,8.28-6.72,15-15,15Z"/></svg>