<svg xmlns="http://www.w3.org/2000/svg" width="10.648" height="10.648" viewBox="0 0 10.648 10.648">
  <path id="Path_1739" data-name="Path 1739" d="M116.366,126.563a.631.631,0,0,1-.446-1.078L125.3,116.1a.631.631,0,0,1,.893.893l-9.385,9.385A.63.63,0,0,1,116.366,126.563Z" transform="translate(-115.735 -115.915)" />
  <path id="Path_1738" data-name="Path 1738" d="M125.751,126.563a.63.63,0,0,1-.446-.185l-9.385-9.385a.631.631,0,0,1,.893-.893l9.385,9.385a.631.631,0,0,1-.446,1.078Z" transform="translate(-115.735 -115.915)" />
</svg>
