<?xml version="1.0" encoding="UTF-8"?><svg id="Layer_1" xmlns="http://www.w3.org/2000/svg" viewBox="0 0 451.42 451.42"><defs><style></style></defs><path class="cls-1" d="m225.71,451.42c-60.29,0-116.97-23.48-159.6-66.11C23.48,342.68,0,286,0,225.71S23.48,108.74,66.11,66.11C108.74,23.48,165.42,0,225.71,0s116.97,23.48,159.6,66.11c42.63,42.63,66.11,99.31,66.11,159.6s-23.48,116.97-66.11,159.6c-42.63,42.63-99.31,66.11-159.6,66.11Zm0-421.43C117.79,29.99,30,117.79,30,225.7s87.8,195.71,195.71,195.71,195.71-87.8,195.71-195.71S333.63,29.99,225.71,29.99Z"/><path class="cls-1" d="m337.2,352.19c-3.84,0-7.68-1.46-10.61-4.39L103.61,124.82c-5.86-5.86-5.86-15.35,0-21.21,5.86-5.86,15.36-5.86,21.21,0l222.98,222.98c5.86,5.86,5.86,15.36,0,21.21-2.92,2.93-6.76,4.39-10.6,4.39Z"/><path class="cls-1" d="m114.22,352.19c-3.84,0-7.68-1.46-10.61-4.39-5.86-5.86-5.86-15.36,0-21.21l222.98-222.98c5.86-5.86,15.36-5.86,21.21,0,5.86,5.86,5.86,15.35,0,21.21l-222.97,222.98c-2.93,2.93-6.77,4.39-10.61,4.39Z"/></svg>